<svg version="1.1" id="Layer_1" xmlns="http://www.w3.org/2000/svg" xmlns:xlink="http://www.w3.org/1999/xlink" x="0px" y="0px"
	 width="100%" viewBox="0 0 64 64" enable-background="new 0 0 64 64" xml:space="preserve">
<path fill="#E6007A" opacity="1.000000" stroke="none" 
	d="
M40.000038,65.000000 
	C26.666685,65.000000 13.833352,65.000000 1.000014,65.000000 
	C1.000010,43.666672 1.000010,22.333345 1.000005,1.000014 
	C22.333326,1.000010 43.666653,1.000010 64.999985,1.000005 
	C64.999985,22.333326 64.999985,43.666653 64.999992,64.999985 
	C56.833351,65.000000 48.666702,65.000000 40.000038,65.000000 
M42.071220,46.282742 
	C43.329948,49.458332 45.940567,50.206116 48.142738,48.135197 
	C50.562836,45.859333 52.915447,42.862309 53.793736,39.754528 
	C54.992943,35.511208 51.617779,33.050343 48.136528,35.751945 
	C45.291245,37.960007 43.993938,42.162773 42.071220,46.282742 
M25.396624,49.104031 
	C24.381111,51.759808 25.398403,53.102051 27.853930,54.547054 
	C31.694164,56.806923 35.047241,55.753880 38.351261,53.978882 
	C39.519524,53.351254 40.913723,51.558933 40.771275,50.489246 
	C40.603741,49.231171 39.087315,47.654232 37.788956,47.137634 
	C33.705936,45.513058 29.527367,44.927124 25.396624,49.104031 
M42.904129,22.673088 
	C43.672859,24.622343 43.908131,27.319475 45.339161,28.340231 
	C47.333908,29.763088 50.222900,29.932274 52.729191,30.637985 
	C53.037167,28.488865 54.007019,26.157967 53.479786,24.238228 
	C52.868378,22.011990 51.240417,19.810120 49.477337,18.248358 
	C48.379292,17.275696 45.788044,16.756639 44.644596,17.405155 
	C43.440868,18.087860 43.163319,20.403589 42.904129,22.673088 
M40.901619,13.752854 
	C37.425652,10.778901 30.774071,9.642879 27.399256,12.046979 
	C26.203901,12.898510 26.148485,15.350259 25.572653,17.071461 
	C28.550409,18.034477 31.584776,19.880610 34.488865,19.694443 
	C37.030800,19.531494 40.956547,18.922058 40.901619,13.752854 
M12.034184,28.863914 
	C13.333942,32.424942 16.221189,32.220139 17.979959,30.183559 
	C20.205782,27.606155 21.594465,24.203005 22.865095,20.967821 
	C23.233551,20.029682 22.249498,17.670660 21.370001,17.341881 
	C20.070955,16.856258 17.963301,17.110018 16.812452,17.919586 
	C13.411850,20.311758 11.292824,23.586199 12.034184,28.863914 
M20.000364,37.501335 
	C17.835808,36.735859 15.671252,35.970387 13.506697,35.204910 
	C13.044436,37.503349 11.714080,40.079479 12.338151,42.030422 
	C13.130455,44.507290 15.173820,46.906303 17.288836,48.554897 
	C19.846199,50.548286 23.158731,48.599136 22.879877,45.285038 
	C22.673342,42.830471 21.368565,40.468307 20.000364,37.501335 
z"/>
<path fill="#FEFDFE" opacity="1.000000" stroke="none" 
	d="
M42.040779,45.881966 
	C43.993938,42.162773 45.291245,37.960007 48.136528,35.751945 
	C51.617779,33.050343 54.992943,35.511208 53.793736,39.754528 
	C52.915447,42.862309 50.562836,45.859333 48.142738,48.135197 
	C45.940567,50.206116 43.329948,49.458332 42.040779,45.881966 
z"/>
<path fill="#FEFDFE" opacity="1.000000" stroke="none" 
	d="
M25.681120,48.820122 
	C29.527367,44.927124 33.705936,45.513058 37.788956,47.137634 
	C39.087315,47.654232 40.603741,49.231171 40.771275,50.489246 
	C40.913723,51.558933 39.519524,53.351254 38.351261,53.978882 
	C35.047241,55.753880 31.694164,56.806923 27.853930,54.547054 
	C25.398403,53.102051 24.381111,51.759808 25.681120,48.820122 
z"/>
<path fill="#FEFDFE" opacity="1.000000" stroke="none" 
	d="
M42.692608,22.339439 
	C43.163319,20.403589 43.440868,18.087860 44.644596,17.405155 
	C45.788044,16.756639 48.379292,17.275696 49.477337,18.248358 
	C51.240417,19.810120 52.868378,22.011990 53.479786,24.238228 
	C54.007019,26.157967 53.037167,28.488865 52.729191,30.637985 
	C50.222900,29.932274 47.333908,29.763088 45.339161,28.340231 
	C43.908131,27.319475 43.672859,24.622343 42.692608,22.339439 
z"/>
<path fill="#FFFDFE" opacity="1.000000" stroke="none" 
	d="
M40.943459,14.158674 
	C40.956547,18.922058 37.030800,19.531494 34.488865,19.694443 
	C31.584776,19.880610 28.550409,18.034477 25.572653,17.071461 
	C26.148485,15.350259 26.203901,12.898510 27.399256,12.046979 
	C30.774071,9.642879 37.425652,10.778901 40.943459,14.158674 
z"/>
<path fill="#FEFDFE" opacity="1.000000" stroke="none" 
	d="
M12.017930,28.461655 
	C11.292824,23.586199 13.411850,20.311758 16.812452,17.919586 
	C17.963301,17.110018 20.070955,16.856258 21.370001,17.341881 
	C22.249498,17.670660 23.233551,20.029682 22.865095,20.967821 
	C21.594465,24.203005 20.205782,27.606155 17.979959,30.183559 
	C16.221189,32.220139 13.333942,32.424942 12.017930,28.461655 
z"/>
<path fill="#FEFDFE" opacity="1.000000" stroke="none" 
	d="
M20.276697,37.783157 
	C21.368565,40.468307 22.673342,42.830471 22.879877,45.285038 
	C23.158731,48.599136 19.846199,50.548286 17.288836,48.554897 
	C15.173820,46.906303 13.130455,44.507290 12.338151,42.030422 
	C11.714080,40.079479 13.044436,37.503349 13.506697,35.204910 
	C15.671252,35.970387 17.835808,36.735859 20.276697,37.783157 
z"/>
</svg>